<mxfile host="app.diagrams.net" modified="2023-10-16T02:17:18.032Z" agent="Mozilla/5.0 (Windows NT 10.0; Win64; x64; rv:109.0) Gecko/20100101 Firefox/118.0" etag="AYze1ikWCh47GlNixOXo" version="22.0.4" type="github">
  <diagram id="C5RBs43oDa-KdzZeNtuy" name="Page-1">
    <mxGraphModel dx="880" dy="425" grid="1" gridSize="10" guides="1" tooltips="1" connect="1" arrows="1" fold="1" page="1" pageScale="1" pageWidth="827" pageHeight="1169" math="0" shadow="0">
      <root>
        <mxCell id="WIyWlLk6GJQsqaUBKTNV-0" />
        <mxCell id="WIyWlLk6GJQsqaUBKTNV-1" parent="WIyWlLk6GJQsqaUBKTNV-0" />
        <mxCell id="pMfObl5O-DH4J4VHj0NP-1" style="edgeStyle=orthogonalEdgeStyle;rounded=0;orthogonalLoop=1;jettySize=auto;html=1;" edge="1" parent="WIyWlLk6GJQsqaUBKTNV-1" source="pMfObl5O-DH4J4VHj0NP-0" target="pMfObl5O-DH4J4VHj0NP-2">
          <mxGeometry relative="1" as="geometry">
            <mxPoint x="390" y="180" as="targetPoint" />
          </mxGeometry>
        </mxCell>
        <mxCell id="pMfObl5O-DH4J4VHj0NP-0" value="mulai" style="rounded=1;whiteSpace=wrap;html=1;" vertex="1" parent="WIyWlLk6GJQsqaUBKTNV-1">
          <mxGeometry x="340" y="70" width="120" height="60" as="geometry" />
        </mxCell>
        <mxCell id="pMfObl5O-DH4J4VHj0NP-3" style="edgeStyle=orthogonalEdgeStyle;rounded=0;orthogonalLoop=1;jettySize=auto;html=1;" edge="1" parent="WIyWlLk6GJQsqaUBKTNV-1" source="pMfObl5O-DH4J4VHj0NP-2" target="pMfObl5O-DH4J4VHj0NP-4">
          <mxGeometry relative="1" as="geometry">
            <mxPoint x="400" y="290" as="targetPoint" />
          </mxGeometry>
        </mxCell>
        <mxCell id="pMfObl5O-DH4J4VHj0NP-2" value="inegar bil" style="shape=internalStorage;whiteSpace=wrap;html=1;backgroundOutline=1;" vertex="1" parent="WIyWlLk6GJQsqaUBKTNV-1">
          <mxGeometry x="330" y="160" width="140" height="80" as="geometry" />
        </mxCell>
        <mxCell id="pMfObl5O-DH4J4VHj0NP-5" style="edgeStyle=orthogonalEdgeStyle;rounded=0;orthogonalLoop=1;jettySize=auto;html=1;" edge="1" parent="WIyWlLk6GJQsqaUBKTNV-1" source="pMfObl5O-DH4J4VHj0NP-4" target="pMfObl5O-DH4J4VHj0NP-6">
          <mxGeometry relative="1" as="geometry">
            <mxPoint x="400" y="390" as="targetPoint" />
          </mxGeometry>
        </mxCell>
        <mxCell id="pMfObl5O-DH4J4VHj0NP-4" value="input bil" style="shape=parallelogram;perimeter=parallelogramPerimeter;whiteSpace=wrap;html=1;fixedSize=1;" vertex="1" parent="WIyWlLk6GJQsqaUBKTNV-1">
          <mxGeometry x="340" y="280" width="120" height="60" as="geometry" />
        </mxCell>
        <mxCell id="pMfObl5O-DH4J4VHj0NP-10" style="edgeStyle=orthogonalEdgeStyle;rounded=0;orthogonalLoop=1;jettySize=auto;html=1;" edge="1" parent="WIyWlLk6GJQsqaUBKTNV-1" source="pMfObl5O-DH4J4VHj0NP-6">
          <mxGeometry relative="1" as="geometry">
            <mxPoint x="240" y="460" as="targetPoint" />
            <Array as="points">
              <mxPoint x="300" y="440" />
              <mxPoint x="300" y="441" />
            </Array>
          </mxGeometry>
        </mxCell>
        <mxCell id="pMfObl5O-DH4J4VHj0NP-14" style="edgeStyle=orthogonalEdgeStyle;rounded=0;orthogonalLoop=1;jettySize=auto;html=1;entryX=0.66;entryY=-0.04;entryDx=0;entryDy=0;entryPerimeter=0;" edge="1" parent="WIyWlLk6GJQsqaUBKTNV-1" source="pMfObl5O-DH4J4VHj0NP-6" target="pMfObl5O-DH4J4VHj0NP-8">
          <mxGeometry relative="1" as="geometry">
            <mxPoint x="570" y="440" as="targetPoint" />
            <Array as="points">
              <mxPoint x="505" y="440" />
              <mxPoint x="505" y="441" />
              <mxPoint x="579" y="441" />
            </Array>
          </mxGeometry>
        </mxCell>
        <mxCell id="pMfObl5O-DH4J4VHj0NP-6" value="bil mod 2==0" style="rhombus;whiteSpace=wrap;html=1;" vertex="1" parent="WIyWlLk6GJQsqaUBKTNV-1">
          <mxGeometry x="360" y="400" width="80" height="80" as="geometry" />
        </mxCell>
        <mxCell id="pMfObl5O-DH4J4VHj0NP-19" style="edgeStyle=orthogonalEdgeStyle;rounded=0;orthogonalLoop=1;jettySize=auto;html=1;" edge="1" parent="WIyWlLk6GJQsqaUBKTNV-1" source="pMfObl5O-DH4J4VHj0NP-7">
          <mxGeometry relative="1" as="geometry">
            <mxPoint x="350" y="583" as="targetPoint" />
            <Array as="points">
              <mxPoint x="230" y="583" />
              <mxPoint x="350" y="583" />
            </Array>
          </mxGeometry>
        </mxCell>
        <mxCell id="pMfObl5O-DH4J4VHj0NP-7" value="outout bilangan ganjil " style="shape=parallelogram;perimeter=parallelogramPerimeter;whiteSpace=wrap;html=1;fixedSize=1;" vertex="1" parent="WIyWlLk6GJQsqaUBKTNV-1">
          <mxGeometry x="160" y="465" width="140" height="70" as="geometry" />
        </mxCell>
        <mxCell id="pMfObl5O-DH4J4VHj0NP-20" style="edgeStyle=orthogonalEdgeStyle;rounded=0;orthogonalLoop=1;jettySize=auto;html=1;" edge="1" parent="WIyWlLk6GJQsqaUBKTNV-1" source="pMfObl5O-DH4J4VHj0NP-8">
          <mxGeometry relative="1" as="geometry">
            <mxPoint x="440" y="585" as="targetPoint" />
            <Array as="points">
              <mxPoint x="555" y="585" />
              <mxPoint x="501" y="585" />
            </Array>
          </mxGeometry>
        </mxCell>
        <mxCell id="pMfObl5O-DH4J4VHj0NP-8" value="outpu bilangan genap" style="shape=parallelogram;perimeter=parallelogramPerimeter;whiteSpace=wrap;html=1;fixedSize=1;" vertex="1" parent="WIyWlLk6GJQsqaUBKTNV-1">
          <mxGeometry x="480" y="480" width="150" height="50" as="geometry" />
        </mxCell>
        <mxCell id="pMfObl5O-DH4J4VHj0NP-18" value="selesai" style="ellipse;whiteSpace=wrap;html=1;aspect=fixed;" vertex="1" parent="WIyWlLk6GJQsqaUBKTNV-1">
          <mxGeometry x="360" y="560" width="70" height="70" as="geometry" />
        </mxCell>
      </root>
    </mxGraphModel>
  </diagram>
</mxfile>
